# xmcd
#
# Track frame offsets:
#	150
#	18354
#	37744
#	55907
#	74386
#	93182
#	110610
#	113376
#	128244
#	145931
#	167834
#	187692
#	209107
#	231369
#	249415
#	270119
#	290853
#	308855
#
# Disc length: 4390 seconds
#
# Revision: 0
# Processed by: cddbd v1.5.1PL2 Copyright (c) Steve Scherf et al.
# Submitted via: dBpowerAMP V4.0
#
DISCID=fa112412
DTITLE=Sin Banderas - De Viaje
DYEAR=2004
DGENRE=Ballad
TTITLE0=01-Y Llegaste Tu
TTITLE1=02-De Viaje
TTITLE2=03-Contigo
TTITLE3=04-Que Loco
TTITLE4=05-Amor Real
TTITLE5=06-Mientes Tan Bien
TTITLE6=07-Te Esperare (Intro)
TTITLE7=08-Te Esperare
TTITLE8=09-Ven
TTITLE9=10-Suficiente
TTITLE10=11-Puede Ser
TTITLE11=12-Magia
TTITLE12=13-Aqui
TTITLE13=14-Cancion Para Dias Lluviosos
TTITLE14=15-A B C
TTITLE15=16-Tal Vez, Lullaby (Mi Lugar)
TTITLE16=17-Bien
TTITLE17=18-Amor Real (En Vivo)
EXTD=
EXTT0=
EXTT1=
EXTT2=
EXTT3=
EXTT4=
EXTT5=
EXTT6=
EXTT7=
EXTT8=
EXTT9=
EXTT10=
EXTT11=
EXTT12=
EXTT13=
EXTT14=
EXTT15=
EXTT16=
EXTT17=
PLAYORDER=
